<svg id="Capa_1" enable-background="new 0 0 508.507 508.507" height="512" viewBox="0 0 508.507 508.507" width="512" xmlns="http://www.w3.org/2000/svg"><path d="m425.441 376.388h-12v-187.488c0-13.355-10.865-24.22-24.22-24.22h-326.716v-12c0-4.142-3.358-7.5-7.5-7.5s-7.5 3.358-7.5 7.5v12h-23.285c-13.355 0-24.22 10.865-24.22 24.22v225.772c0 13.355 10.865 24.22 24.22 24.22h365.002c13.355 0 24.22-10.865 24.22-24.22v-23.285h12c4.142 0 7.5-3.358 7.5-7.5s-3.359-7.499-7.501-7.499zm-401.221-196.708h365.002c5.084 0 9.22 4.136 9.22 9.22v24.264h-383.442v-24.264c0-5.084 4.136-9.22 9.22-9.22zm374.221 234.992c0 5.084-4.136 9.22-9.22 9.22h-365.001c-5.084 0-9.22-4.136-9.22-9.22v-186.508h383.441z"/><path d="m453.446 234.109c-4.142 0-7.5 3.358-7.5 7.5v40.563c0 4.142 3.358 7.5 7.5 7.5s7.5-3.358 7.5-7.5v-40.563c0-4.142-3.358-7.5-7.5-7.5z"/><path d="m442.915 118.477c-2.633-.863-5.382-1.301-8.17-1.301h-34.628c-4.142 0-7.5 3.358-7.5 7.5s3.358 7.5 7.5 7.5h34.628c1.198 0 2.375.187 3.497.554.776.255 1.563.375 2.338.375 3.154 0 6.089-2.005 7.125-5.165 1.291-3.936-.854-8.173-4.79-9.463z"/><path d="m197.305 132.175c4.142 0 7.5-3.358 7.5-7.5s-3.358-7.5-7.5-7.5h-40.563c-4.142 0-7.5 3.358-7.5 7.5s3.358 7.5 7.5 7.5z"/><path d="m359.554 132.175c4.142 0 7.5-3.358 7.5-7.5s-3.358-7.5-7.5-7.5h-40.563c-4.142 0-7.5 3.358-7.5 7.5s3.358 7.5 7.5 7.5z"/><path d="m278.429 132.175c4.142 0 7.5-3.358 7.5-7.5s-3.358-7.5-7.5-7.5h-40.563c-4.142 0-7.5 3.358-7.5 7.5s3.358 7.5 7.5 7.5z"/><path d="m460.946 160.484c0-4.142-3.358-7.5-7.5-7.5s-7.5 3.358-7.5 7.5v40.563c0 4.142 3.358 7.5 7.5 7.5s7.5-3.358 7.5-7.5z"/><path d="m482.306 69.614h-361.039c-14.448 0-26.202 11.754-26.202 26.202v21.359h-19.447c-4.142 0-7.5 3.358-7.5 7.5s3.358 7.5 7.5 7.5h40.562c4.142 0 7.5-3.358 7.5-7.5s-3.358-7.5-7.5-7.5h-6.114v-21.359c0-6.177 5.025-11.202 11.202-11.202h361.039c6.176 0 11.201 5.025 11.201 11.202v221.81c0 6.176-5.025 11.201-11.201 11.201h-21.359v-6.093c0-4.142-3.358-7.5-7.5-7.5s-7.5 3.358-7.5 7.5v40.563c0 4.142 3.358 7.5 7.5 7.5s7.5-3.358 7.5-7.5v-19.469h21.359c14.447 0 26.201-11.754 26.201-26.201v-221.811c-.001-14.448-11.755-26.202-26.202-26.202z"/><circle cx="42.774" cy="195.565" r="7.991"/><circle cx="76.665" cy="195.565" r="7.991"/><circle cx="110.556" cy="195.565" r="7.991"/><path d="m49.065 347.492h133.609c8.188 0 14.848-6.661 14.848-14.848v-71.152c0-8.187-6.661-14.848-14.848-14.848h-76.009c-4.142 0-7.5 3.358-7.5 7.5s3.358 7.5 7.5 7.5h58.391l-49.402 27.59-49.402-27.59h10.413c4.142 0 7.5-3.358 7.5-7.5s-3.358-7.5-7.5-7.5h-27.6c-8.187 0-14.848 6.661-14.848 14.848v71.152c0 8.188 6.661 14.848 14.848 14.848zm19.895-15 46.694-26.078 46.694 26.078zm113.562-63.422v57.508l-51.486-28.754zm-133.305 57.268v-57.027l51.056 28.513z"/><path d="m366.116 246.645h-133.609c-8.187 0-14.848 6.661-14.848 14.848v71.152c0 8.188 6.661 14.848 14.848 14.848h64.595c4.142 0 7.5-3.358 7.5-7.5s-3.358-7.5-7.5-7.5h-42.01l46.694-26.078 46.694 26.078h-21.378c-4.142 0-7.5 3.358-7.5 7.5s3.358 7.5 7.5 7.5h39.014c8.188 0 14.848-6.661 14.848-14.848v-71.152c0-8.188-6.66-14.848-14.848-14.848zm-14.928 15-49.402 27.59-49.402-27.59zm-118.528 66.195v-60.032l53.746 30.016zm133.304-57.267v54.504l-48.797-27.252z"/><path d="m57.729 376.388h-14.955c-4.142 0-7.5 3.358-7.5 7.5s3.358 7.5 7.5 7.5h14.954c4.142 0 7.5-3.358 7.5-7.5s-3.357-7.5-7.499-7.5z"/><path d="m371.597 376.388h-14.955c-4.142 0-7.5 3.358-7.5 7.5s3.358 7.5 7.5 7.5h14.955c4.142 0 7.5-3.358 7.5-7.5s-3.358-7.5-7.5-7.5z"/><path d="m329.429 376.388h-248.807c-4.142 0-7.5 3.358-7.5 7.5s3.358 7.5 7.5 7.5h248.807c4.142 0 7.5-3.358 7.5-7.5s-3.358-7.5-7.5-7.5z"/></svg>