<svg id="Capa_1" enable-background="new 0 0 512.232 512.232" height="512" viewBox="0 0 512.232 512.232" width="512" xmlns="http://www.w3.org/2000/svg"><path d="m491.319 31.315h-470.406c-11.531 0-20.913 9.382-20.913 20.914v278.164c0 11.531 9.382 20.913 20.913 20.913h175.98v15.865c0 7.69 6.257 13.947 13.947 13.947h165.915c7.69 0 13.947-6.257 13.947-13.947v-15.865h14.332c3.009 7.675 10.472 13.133 19.202 13.133 8.729 0 16.192-5.458 19.201-13.133h47.882c11.531 0 20.913-9.382 20.913-20.913v-278.164c0-11.532-9.381-20.914-20.913-20.914zm-470.406 15h470.406c3.261 0 5.913 2.652 5.913 5.913v22.956h-482.232v-22.955c0-3.261 2.652-5.914 5.913-5.914zm-5.913 284.078v-240.208h128.247v246.121h-122.334c-3.261 0-5.913-2.653-5.913-5.913zm360.703 35.725h-163.81v-44.626h163.81zm48.533-16.68c-3.106 0-5.634-2.527-5.634-5.633s2.527-5.634 5.634-5.634c3.105 0 5.633 2.527 5.633 5.634 0 3.106-2.527 5.633-5.633 5.633zm67.083-13.132h-47.882c-3.009-7.676-10.472-13.134-19.201-13.134-8.73 0-16.193 5.458-19.202 13.134h-14.331v-15.866c0-7.69-6.257-13.947-13.947-13.947h-165.915c-7.69 0-13.947 6.257-13.947 13.947v15.866h-38.646v-246.121h338.985v240.208c-.001 3.26-2.653 5.913-5.914 5.913z"/><circle cx="40.029" cy="60.766" r="8.337"/><circle cx="73.756" cy="60.766" r="8.337"/><circle cx="107.484" cy="60.766" r="8.337"/><path d="m45.185 188.279c.315.302.654.58 1.018.824 8.129 6.449 18.395 10.315 29.553 10.315s21.424-3.866 29.553-10.314c.366-.245.706-.524 1.023-.827 10.425-8.747 17.069-21.861 17.069-36.503 0-26.271-21.373-47.644-47.645-47.644-26.271 0-47.644 21.373-47.644 47.644 0 14.643 6.645 27.759 17.073 36.505zm30.571-68.95c6.451 0 11.7 5.248 11.7 11.699s-5.249 11.699-11.7 11.699-11.699-5.248-11.699-11.699 5.248-11.699 11.699-11.699zm-17.89 59.73v-3.441c0-9.864 8.025-17.89 17.891-17.89 9.864 0 17.89 8.025 17.89 17.89v3.44c-5.142 3.383-11.289 5.359-17.891 5.359-6.602.001-12.748-1.975-17.89-5.358zm48.402-15.698c-2.289-5.678-6.113-10.577-10.963-14.174 4.03-4.334 6.635-10.005 7.076-16.265 3.785 5.329 6.019 11.832 6.019 18.852 0 4.079-.759 7.983-2.132 11.587zm-57.137-30.44c.441 6.261 3.047 11.931 7.076 16.266-4.85 3.597-8.674 8.496-10.963 14.174-1.373-3.604-2.132-7.508-2.132-11.588 0-7.019 2.235-13.523 6.019-18.852z"/><path d="m51.92 212.203h-12.892c-4.143 0-7.5 3.357-7.5 7.5s3.357 7.5 7.5 7.5h12.892c4.143 0 7.5-3.357 7.5-7.5s-3.357-7.5-7.5-7.5z"/><path d="m76.895 212.203c-4.143 0-7.5 3.357-7.5 7.5s3.357 7.5 7.5 7.5h44.004c4.143 0 7.5-3.357 7.5-7.5s-3.357-7.5-7.5-7.5z"/><path d="m51.92 240.867h-12.892c-4.143 0-7.5 3.357-7.5 7.5s3.357 7.5 7.5 7.5h12.892c4.143 0 7.5-3.357 7.5-7.5s-3.357-7.5-7.5-7.5z"/><path d="m120.898 240.867h-44.003c-4.143 0-7.5 3.357-7.5 7.5s3.357 7.5 7.5 7.5h44.004c4.143 0 7.5-3.357 7.5-7.5s-3.358-7.5-7.501-7.5z"/><path d="m51.92 269.531h-12.892c-4.143 0-7.5 3.357-7.5 7.5s3.357 7.5 7.5 7.5h12.892c4.143 0 7.5-3.357 7.5-7.5s-3.357-7.5-7.5-7.5z"/><path d="m120.898 269.531h-44.003c-4.143 0-7.5 3.357-7.5 7.5s3.357 7.5 7.5 7.5h44.004c4.143 0 7.5-3.357 7.5-7.5s-3.358-7.5-7.501-7.5z"/><path d="m51.92 298.195h-12.892c-4.143 0-7.5 3.357-7.5 7.5s3.357 7.5 7.5 7.5h12.892c4.143 0 7.5-3.357 7.5-7.5s-3.357-7.5-7.5-7.5z"/><path d="m120.898 298.195h-44.003c-4.143 0-7.5 3.357-7.5 7.5s3.357 7.5 7.5 7.5h44.004c4.143 0 7.5-3.357 7.5-7.5s-3.358-7.5-7.501-7.5z"/><path d="m210.841 181.52h165.915c7.69 0 13.947-6.257 13.947-13.947v-46.73c0-7.69-6.257-13.947-13.947-13.947h-165.915c-7.69 0-13.947 6.257-13.947 13.947v46.73c0 7.69 6.256 13.947 13.947 13.947zm1.053-59.625h163.81v44.625h-163.81z"/><path d="m422.331 194.518h-232.065c-7.69 0-13.947 6.257-13.947 13.947v71.082c0 7.69 6.257 13.947 13.947 13.947h132.211c4.143 0 7.5-3.357 7.5-7.5s-3.357-7.5-7.5-7.5h-131.159v-68.977h229.96v68.977h-68.802c-4.143 0-7.5 3.357-7.5 7.5s3.357 7.5 7.5 7.5h69.854c7.69 0 13.947-6.257 13.947-13.947v-71.082c.001-7.691-6.256-13.947-13.946-13.947z"/><path d="m376.756 406.291h-79.257c-4.143 0-7.5 3.357-7.5 7.5s3.357 7.5 7.5 7.5h78.204v44.626h-163.81v-44.626h55.605c4.143 0 7.5-3.357 7.5-7.5s-3.357-7.5-7.5-7.5h-56.658c-7.69 0-13.947 6.257-13.947 13.947v46.731c0 7.69 6.257 13.947 13.947 13.947h165.915c7.69 0 13.947-6.257 13.947-13.947v-46.731c.001-7.69-6.256-13.947-13.946-13.947z"/><path d="m424.236 126.303c-11.378 0-20.634 9.256-20.634 20.633 0 11.378 9.256 20.634 20.634 20.634 11.377 0 20.633-9.256 20.633-20.634 0-11.377-9.256-20.633-20.633-20.633zm0 26.266c-3.106 0-5.634-2.527-5.634-5.634 0-3.105 2.527-5.633 5.634-5.633 3.105 0 5.633 2.527 5.633 5.633 0 3.107-2.527 5.634-5.633 5.634z"/><path d="m424.236 422.972c-11.378 0-20.634 9.256-20.634 20.633s9.256 20.633 20.634 20.633c11.377 0 20.633-9.256 20.633-20.633s-9.256-20.633-20.633-20.633zm0 26.265c-3.106 0-5.634-2.527-5.634-5.633s2.527-5.633 5.634-5.633c3.105 0 5.633 2.527 5.633 5.633s-2.527 5.633-5.633 5.633z"/><path d="m465.925 223.373c-11.377 0-20.633 9.256-20.633 20.633 0 11.378 9.256 20.634 20.633 20.634s20.633-9.256 20.633-20.634c0-11.377-9.256-20.633-20.633-20.633zm0 26.267c-3.105 0-5.633-2.527-5.633-5.634 0-3.105 2.527-5.633 5.633-5.633s5.633 2.527 5.633 5.633-2.528 5.634-5.633 5.634z"/><path d="m243.936 123.528c-11.402 0-20.679 9.276-20.679 20.679s9.276 20.679 20.679 20.679 20.679-9.276 20.679-20.679-9.277-20.679-20.679-20.679zm0 26.358c-3.131 0-5.679-2.548-5.679-5.679s2.548-5.679 5.679-5.679 5.679 2.548 5.679 5.679-2.549 5.679-5.679 5.679z"/><path d="m243.936 323.126c-11.402 0-20.679 9.277-20.679 20.68s9.276 20.679 20.679 20.679 20.679-9.276 20.679-20.679-9.277-20.68-20.679-20.68zm0 26.358c-3.131 0-5.679-2.548-5.679-5.679 0-3.132 2.548-5.68 5.679-5.68s5.679 2.548 5.679 5.68c-.001 3.132-2.549 5.679-5.679 5.679z"/><path d="m223.257 443.604c0 11.402 9.276 20.679 20.679 20.679s20.679-9.276 20.679-20.679-9.276-20.679-20.679-20.679-20.679 9.277-20.679 20.679zm26.357 0c0 3.131-2.548 5.679-5.679 5.679s-5.679-2.548-5.679-5.679 2.548-5.679 5.679-5.679 5.679 2.549 5.679 5.679z"/><path d="m203.768 244.006c0 16.733 13.614 30.348 30.348 30.348s30.348-13.614 30.348-30.348-13.614-30.348-30.348-30.348-30.348 13.614-30.348 30.348zm45.695 0c0 8.463-6.885 15.348-15.348 15.348s-15.348-6.885-15.348-15.348 6.885-15.348 15.348-15.348 15.348 6.885 15.348 15.348z"/><path d="m290.839 136.707h-8.34c-4.143 0-7.5 3.357-7.5 7.5s3.357 7.5 7.5 7.5h8.34c4.143 0 7.5-3.357 7.5-7.5s-3.358-7.5-7.5-7.5z"/><path d="m354.313 136.707h-42.162c-4.143 0-7.5 3.357-7.5 7.5s3.357 7.5 7.5 7.5h42.162c4.143 0 7.5-3.357 7.5-7.5s-3.357-7.5-7.5-7.5z"/><path d="m290.839 336.306h-8.34c-4.143 0-7.5 3.357-7.5 7.5s3.357 7.5 7.5 7.5h8.34c4.143 0 7.5-3.357 7.5-7.5s-3.358-7.5-7.5-7.5z"/><path d="m354.313 336.306h-42.162c-4.143 0-7.5 3.357-7.5 7.5s3.357 7.5 7.5 7.5h42.162c4.143 0 7.5-3.357 7.5-7.5s-3.357-7.5-7.5-7.5z"/><path d="m284.499 236.281h8.34c4.143 0 7.5-3.357 7.5-7.5s-3.357-7.5-7.5-7.5h-8.34c-4.143 0-7.5 3.357-7.5 7.5s3.357 7.5 7.5 7.5z"/><path d="m400.183 221.281h-86.031c-4.143 0-7.5 3.357-7.5 7.5s3.357 7.5 7.5 7.5h86.031c4.143 0 7.5-3.357 7.5-7.5s-3.358-7.5-7.5-7.5z"/><path d="m400.183 248.412h-8.34c-4.143 0-7.5 3.357-7.5 7.5s3.357 7.5 7.5 7.5h8.34c4.143 0 7.5-3.357 7.5-7.5s-3.358-7.5-7.5-7.5z"/><path d="m284.499 263.412h86.031c4.143 0 7.5-3.357 7.5-7.5s-3.357-7.5-7.5-7.5h-86.031c-4.143 0-7.5 3.357-7.5 7.5s3.357 7.5 7.5 7.5z"/><path d="m282.499 450.167h8.34c4.143 0 7.5-3.357 7.5-7.5s-3.357-7.5-7.5-7.5h-8.34c-4.143 0-7.5 3.357-7.5 7.5s3.357 7.5 7.5 7.5z"/><path d="m354.313 450.167c4.143 0 7.5-3.357 7.5-7.5s-3.357-7.5-7.5-7.5h-42.162c-4.143 0-7.5 3.357-7.5 7.5s3.357 7.5 7.5 7.5z"/></svg>